<?xml version="1.0" encoding="utf-8"?><svg xmlns="http://www.w3.org/2000/svg" xmlns:xlink="http://www.w3.org/1999/xlink"><symbol viewBox="0 -31 512 512" id="cart" xmlns="http://www.w3.org/2000/svg"><path d="M164.96 300.004h.024c.02 0 .04-.004.059-.004H437a15.003 15.003 0 0 0 14.422-10.879l60-210a15.003 15.003 0 0 0-2.445-13.152A15.006 15.006 0 0 0 497 60H130.367l-10.722-48.254A15.003 15.003 0 0 0 105 0H15C6.715 0 0 6.715 0 15s6.715 15 15 15h77.969c1.898 8.55 51.312 230.918 54.156 243.71C131.184 280.64 120 296.536 120 315c0 24.812 20.188 45 45 45h272c8.285 0 15-6.715 15-15s-6.715-15-15-15H165c-8.27 0-15-6.73-15-15 0-8.258 6.707-14.977 14.96-14.996zM477.114 90l-51.43 180H177.032l-40-180zM150 405c0 24.813 20.188 45 45 45s45-20.188 45-45-20.188-45-45-45-45 20.188-45 45zm45-15c8.27 0 15 6.73 15 15s-6.73 15-15 15-15-6.73-15-15 6.73-15 15-15zm167 15c0 24.813 20.188 45 45 45s45-20.188 45-45-20.188-45-45-45-45 20.188-45 45zm45-15c8.27 0 15 6.73 15 15s-6.73 15-15 15-15-6.73-15-15 6.73-15 15-15zm0 0"/></symbol><symbol viewBox="0 0 407.436 407.436" id="chevron-left" xmlns="http://www.w3.org/2000/svg"><path d="M315.869 21.178L294.621 0 91.566 203.718l203.055 203.718 21.248-21.178-181.945-182.54z"/></symbol><symbol viewBox="0 0 407.436 407.436" id="chevron-right" xmlns="http://www.w3.org/2000/svg"><path d="M112.814 0L91.566 21.178l181.946 182.54-181.946 182.54 21.248 21.178 203.055-203.718z"/></symbol><symbol viewBox="0 0 47.971 47.971" id="close" xmlns="http://www.w3.org/2000/svg"><path d="M28.228 23.986L47.092 5.122a2.998 2.998 0 0 0 0-4.242 2.998 2.998 0 0 0-4.242 0L23.986 19.744 5.121.88a2.998 2.998 0 0 0-4.242 0 2.998 2.998 0 0 0 0 4.242l18.865 18.864L.879 42.85a2.998 2.998 0 1 0 4.242 4.241l18.865-18.864L42.85 47.091c.586.586 1.354.879 2.121.879s1.535-.293 2.121-.879a2.998 2.998 0 0 0 0-4.242L28.228 23.986z"/></symbol><symbol viewBox="0 0 293.399 293.399" id="file-upload" xmlns="http://www.w3.org/2000/svg"><path d="M185.711 39.694L156.052 4.357c-.092-.103-.207-.174-.299-.277a11.425 11.425 0 0 0-1.507-1.403c-.071-.054-.125-.114-.196-.158C152 .957 149.476 0 146.702 0s-5.298.963-7.348 2.518c-.071.049-.125.103-.196.158-.538.43-1.05.892-1.507 1.403-.092.103-.212.174-.299.277l-29.659 35.338c-4.335 5.156-3.66 12.858 1.501 17.198 5.167 4.324 12.869 3.655 17.198-1.512l8.104-9.654v151.016c0 6.739 5.461 12.205 12.205 12.205s12.205-5.466 12.205-12.205V45.732l8.104 9.654a12.176 12.176 0 0 0 9.355 4.362 12.18 12.18 0 0 0 7.838-2.85c5.169-4.34 5.843-12.042 1.508-17.204z"/><path d="M232.819 293.399H60.586c-13.092 0-23.742-10.65-23.742-23.736V97.425c0-13.086 10.65-23.736 23.742-23.736h44.247c6.744 0 12.205 5.466 12.205 12.205s-5.461 12.211-12.205 12.211H61.255v170.884h170.89V98.099h-42.593c-6.744 0-12.205-5.466-12.205-12.211 0-6.739 5.461-12.205 12.205-12.205h43.262c13.092 0 23.742 10.65 23.742 23.736v172.239c.005 13.092-10.645 23.741-23.737 23.741z"/></symbol><symbol viewBox="0 0 31.012 31.012" id="mail" xmlns="http://www.w3.org/2000/svg"><path d="M25.109 21.51a.495.495 0 0 1-.342-.136l-5.754-5.398a.5.5 0 1 1 .685-.728l5.754 5.398a.5.5 0 0 1-.343.864zm-19.207 0a.5.5 0 0 1-.343-.864l5.756-5.398a.5.5 0 0 1 .685.728l-5.756 5.398a.495.495 0 0 1-.342.136z"/><path d="M28.512 26.529H2.5a2.503 2.503 0 0 1-2.5-2.5V6.982c0-1.379 1.122-2.5 2.5-2.5h26.012c1.378 0 2.5 1.121 2.5 2.5v17.047c0 1.379-1.122 2.5-2.5 2.5zM2.5 5.482c-.827 0-1.5.673-1.5 1.5v17.047c0 .827.673 1.5 1.5 1.5h26.012c.827 0 1.5-.673 1.5-1.5V6.982c0-.827-.673-1.5-1.5-1.5H2.5z"/><path d="M15.506 18.018c-.665 0-1.33-.221-1.836-.662L.83 6.155a.501.501 0 0 1-.049-.706.503.503 0 0 1 .706-.048l12.84 11.2c.639.557 1.719.557 2.357 0L29.508 5.419a.5.5 0 0 1 .658.754L17.342 17.355c-.507.442-1.171.663-1.836.663z"/></symbol><symbol viewBox="0 0 512 512" id="map" xmlns="http://www.w3.org/2000/svg"><path d="M256 0C153.755 0 70.573 83.182 70.573 185.426c0 126.888 165.939 313.167 173.004 321.035 6.636 7.391 18.222 7.378 24.846 0 7.065-7.868 173.004-194.147 173.004-321.035C441.425 83.182 358.244 0 256 0zm0 278.719c-51.442 0-93.292-41.851-93.292-93.293S204.559 92.134 256 92.134s93.291 41.851 93.291 93.293-41.85 93.292-93.291 93.292z"/></symbol><symbol viewBox="0 0 512 512" id="messenger" xmlns="http://www.w3.org/2000/svg"><path d="M256 0C117.223 0 0 106.414 0 241c0 72.125 34.8 138.086 91 183v73a15 15 0 0 0 21.844 13.348l74.453-38.16C209.57 478.034 232.652 481 256 481c141.16 0 256-107.664 256-240C512 106.348 394.703 0 256 0zm0 451c-22.574 0-44.855-3.11-66.219-9.238a14.97 14.97 0 0 0-10.976 1.066L121 472.457v-55.805a15 15 0 0 0-5.988-11.992C60.984 364.06 30 304.406 30 241 30 124.652 131.383 30 256 30s226 94.652 226 211c0 115.793-101.383 210-226 210zm0 0"/><path d="M399.293 152.586L288.961 207.75l-52.356-52.355a14.987 14.987 0 0 0-11.433-4.372 15.003 15.003 0 0 0-10.883 5.61l-120 150a14.996 14.996 0 0 0 .047 18.8 15.007 15.007 0 0 0 18.375 3.985l110.328-55.164 52.356 52.355a14.982 14.982 0 0 0 11.437 4.368 15 15 0 0 0 10.883-5.606l120-150a15.002 15.002 0 0 0-.05-18.8 14.995 14.995 0 0 0-18.372-3.985zM284.758 293.543l-48.153-48.148a14.997 14.997 0 0 0-17.312-2.813l-58.918 29.457 66.867-83.582 48.153 48.148a14.996 14.996 0 0 0 17.312 2.813l58.918-29.457zm0 0"/></symbol><symbol viewBox="0 0 291.791 291.791" id="mscard" xmlns="http://www.w3.org/2000/svg"><path d="M182.298 145.895c0 50.366-40.801 91.176-91.149 91.176S0 196.252 0 145.895s40.811-91.176 91.149-91.176 91.149 40.819 91.149 91.176z"/><path d="M200.616 54.719c-20.442 0-39.261 6.811-54.469 18.181l.073.009c2.991 2.89 6.291 4.924 8.835 8.251l-18.965.301c-2.972 3-5.68 6.264-8.233 9.656H161.3c2.544 3.054 4.896 5.708 7.03 9.081h-46.536c-1.705 2.936-3.282 5.954-4.659 9.09h56.493c1.477 3.127 2.799 5.489 3.921 8.799h-63.76a87.809 87.809 0 0 0-2.535 9.646h68.966c.675 3.155 1.194 6.072 1.55 9.045h-71.884c-.301 3-.456 6.045-.456 9.118h72.859c0 3.228-.228 6.218-.556 9.118h-71.847c.31 3.091.766 6.127 1.368 9.118h68.856a107.579 107.579 0 0 1-2.562 9.008h-63.969c.966 3.118 2.143 6.145 3.428 9.099h56.621c-1.568 3.319-3.346 5.972-5.306 9.081h-46.691a88.709 88.709 0 0 0 6.081 9.154l33.589.501c-2.863 3.437-6.537 5.507-9.884 8.516.182.146-5.352-.018-16.248-.191 16.576 17.105 39.744 27.772 65.446 27.772 50.357 0 91.176-40.82 91.176-91.176s-40.81-91.177-91.175-91.177z"/></symbol><symbol viewBox="0 0 29.731 29.731" id="phone" xmlns="http://www.w3.org/2000/svg"><path d="M23.895 29.731c-1.237 0-2.731-.31-4.374-.93-3.602-1.358-7.521-4.042-11.035-7.556C4.971 17.73 2.287 13.81.928 10.208-.307 6.933-.31 4.245.921 3.015c.177-.177.357-.367.543-.563C2.587 1.271 3.856-.058 5.538.002 6.697.05 7.82.77 8.97 2.201c3.398 4.226 1.866 5.732.093 7.478l-.313.31c-.29.29-.838 1.633 4.26 6.731 1.664 1.664 3.083 2.882 4.217 3.619.714.464 1.991 1.166 2.515.642l.315-.318c1.744-1.769 3.25-3.296 7.473.099 1.431 1.15 2.15 2.272 2.198 3.433.069 1.681-1.27 2.953-2.452 4.075-.195.186-.385.366-.562.542-.611.612-1.588.919-2.819.919zM5.418 1C4.223 1 3.144 2.136 2.189 3.141c-.192.202-.378.398-.561.581-.917.916-.824 3.323.236 6.134 1.31 3.472 3.913 7.266 7.33 10.683 3.416 3.415 7.208 6.018 10.681 7.327 2.811 1.062 5.218 1.152 6.133.237.183-.183.379-.369.581-.56 1.027-.976 2.192-2.082 2.141-3.309-.035-.843-.649-1.75-1.825-2.695-3.519-2.83-4.503-1.831-6.135-.176l-.32.323c-.78.781-2.047.608-3.767-.51-1.193-.776-2.667-2.038-4.379-3.751-4.231-4.23-5.584-6.819-4.26-8.146l.319-.315c1.659-1.632 2.66-2.617-.171-6.138-.947-1.175-1.853-1.789-2.696-1.825L5.418 1z"/></symbol><symbol viewBox="0 0 92 92" id="question" xmlns="http://www.w3.org/2000/svg"><path d="M45.386.004C19.983.344-.333 21.215.005 46.619c.34 25.393 21.209 45.715 46.611 45.377 25.398-.342 45.718-21.213 45.38-46.615-.34-25.395-21.21-45.716-46.61-45.377zM45.25 74l-.254-.004c-3.912-.116-6.67-2.998-6.559-6.852.109-3.788 2.934-6.538 6.717-6.538l.227.004c4.021.119 6.748 2.972 6.635 6.937C51.904 71.346 49.123 74 45.25 74zm16.455-32.659c-.92 1.307-2.943 2.93-5.492 4.916l-2.807 1.938c-1.541 1.198-2.471 2.325-2.82 3.434-.275.873-.41 1.104-.434 2.88l-.004.451H39.43l.031-.907c.131-3.728.223-5.921 1.768-7.733 2.424-2.846 7.771-6.289 7.998-6.435.766-.577 1.412-1.234 1.893-1.936 1.125-1.551 1.623-2.772 1.623-3.972a7.74 7.74 0 0 0-1.471-4.576c-.939-1.323-2.723-1.993-5.303-1.993-2.559 0-4.311.812-5.359 2.478-1.078 1.713-1.623 3.512-1.623 5.35v.457H27.936l.02-.477c.285-6.769 2.701-11.643 7.178-14.487C37.947 18.918 41.447 18 45.531 18c5.346 0 9.859 1.299 13.412 3.861 3.6 2.596 5.426 6.484 5.426 11.556 0 2.837-.896 5.502-2.664 7.924z"/></symbol><symbol viewBox="0 0 512 512" id="search" xmlns="http://www.w3.org/2000/svg"><path d="M495 466.2L377.2 348.4c29.2-35.6 46.8-81.2 46.8-130.9C424 103.5 331.5 11 217.5 11 103.4 11 11 103.5 11 217.5S103.4 424 217.5 424c49.7 0 95.2-17.5 130.8-46.7L466.1 495c8 8 20.9 8 28.9 0 8-7.9 8-20.9 0-28.8zm-277.5-83.3C126.2 382.9 52 308.7 52 217.5S126.2 52 217.5 52C308.7 52 383 126.3 383 217.5s-74.3 165.4-165.5 165.4z"/></symbol><symbol viewBox="0 0 300 300" id="telegram" xmlns="http://www.w3.org/2000/svg"><path d="M5.299 144.645l69.126 25.8 26.756 86.047c1.712 5.511 8.451 7.548 12.924 3.891l38.532-31.412a11.496 11.496 0 0 1 14.013-.391l69.498 50.457c4.785 3.478 11.564.856 12.764-4.926L299.823 29.22c1.31-6.316-4.896-11.585-10.91-9.259L5.218 129.402c-7.001 2.7-6.94 12.612.081 15.243zm91.57 12.066l135.098-83.207c2.428-1.491 4.926 1.792 2.841 3.726L123.313 180.87a23.112 23.112 0 0 0-7.163 13.829l-3.798 28.146c-.503 3.758-5.782 4.131-6.819.494l-14.607-51.325c-1.673-5.854.765-12.107 5.943-15.303z"/></symbol><symbol viewBox="0 0 504 504" id="visa" xmlns="http://www.w3.org/2000/svg"><path d="M184.8 324.4l25.6-144h40l-24.8 144z"/><path d="M184.8 324.4l32.8-144h32.8l-24.8 144zM370.4 182c-8-3.2-20.8-6.4-36.8-6.4-40 0-68.8 20-68.8 48.8 0 21.6 20 32.8 36 40s20.8 12 20.8 18.4c0 9.6-12.8 14.4-24 14.4-16 0-24.8-2.4-38.4-8l-5.6-2.4-5.6 32.8c9.6 4 27.2 8 45.6 8 42.4 0 70.4-20 70.4-50.4 0-16.8-10.4-29.6-34.4-40-14.4-7.2-23.2-11.2-23.2-18.4 0-6.4 7.2-12.8 23.2-12.8 13.6 0 23.2 2.4 30.4 5.6l4 1.6 6.4-31.2z"/><path d="M370.4 182c-8-3.2-20.8-6.4-36.8-6.4-40 0-61.6 20-61.6 48.8 0 21.6 12.8 32.8 28.8 40s20.8 12 20.8 18.4c0 9.6-12.8 14.4-24 14.4-16 0-24.8-2.4-38.4-8l-5.6-2.4-5.6 32.8c9.6 4 27.2 8 45.6 8 42.4 0 70.4-20 70.4-50.4 0-16.8-10.4-29.6-34.4-40-14.4-7.2-23.2-11.2-23.2-18.4 0-6.4 7.2-12.8 23.2-12.8 13.6 0 23.2 2.4 30.4 5.6l4 1.6 6.4-31.2zM439.2 180.4c-9.6 0-16.8.8-20.8 10.4l-60 133.6h43.2l8-24h51.2l4.8 24H504l-33.6-144h-31.2zm-18.4 96c2.4-7.2 16-42.4 16-42.4s3.2-8.8 5.6-14.4l2.4 13.6s8 36 9.6 44h-33.6v-.8z"/><path d="M448.8 180.4c-9.6 0-16.8.8-20.8 10.4l-69.6 133.6h43.2l8-24h51.2l4.8 24H504l-33.6-144h-21.6zm-28 96c3.2-8 16-42.4 16-42.4s3.2-8.8 5.6-14.4l2.4 13.6s8 36 9.6 44h-33.6v-.8zM111.2 281.2l-4-20.8c-7.2-24-30.4-50.4-56-63.2l36 128h43.2l64.8-144H152l-40.8 100z"/><path d="M111.2 281.2l-4-20.8c-7.2-24-30.4-50.4-56-63.2l36 128h43.2l64.8-144H160l-48.8 100z"/><path d="M0 180.4l7.2 1.6c51.2 12 86.4 42.4 100 78.4l-14.4-68c-2.4-9.6-9.6-12-18.4-12H0z"/><path d="M0 180.4c51.2 12 93.6 43.2 107.2 79.2l-13.6-56.8c-2.4-9.6-10.4-15.2-19.2-15.2L0 180.4z"/><path d="M0 180.4c51.2 12 93.6 43.2 107.2 79.2l-9.6-31.2c-2.4-9.6-5.6-19.2-16.8-23.2L0 180.4z"/><path d="M151.2 276.4L124 249.2l-12.8 30.4-3.2-20c-7.2-24-30.4-50.4-56-63.2l36 128h43.2l20-48zm74.4 48l-34.4-35.2-6.4 35.2zm92-49.6c3.2 3.2 4.8 5.6 4 8.8 0 9.6-12.8 14.4-24 14.4-16 0-24.8-2.4-38.4-8l-5.6-2.4-5.6 32.8c9.6 4 27.2 8 45.6 8 25.6 0 46.4-7.2 58.4-20l-34.4-33.6zm46.4 49.6h37.6l8-24h51.2l4.8 24H504L490.4 266l-48-46.4 2.4 12.8s8 36 9.6 44h-33.6c3.2-8 16-42.4 16-42.4s3.2-8.8 5.6-14.4"/></symbol><symbol viewBox="0 0 511.962 511.962" id="vk" xmlns="http://www.w3.org/2000/svg"><path d="M507.399 370.471c-1.376-2.304-9.888-20.8-50.848-58.816-42.88-39.808-37.12-33.344 14.528-102.176 31.456-41.92 44.032-67.52 40.096-78.464-3.744-10.432-26.88-7.68-26.88-7.68l-76.928.448s-5.696-.768-9.952 1.76c-4.128 2.496-6.784 8.256-6.784 8.256s-12.192 32.448-28.448 60.032c-34.272 58.208-48 61.28-53.6 57.664-13.024-8.416-9.76-33.856-9.76-51.904 0-56.416 8.544-79.936-16.672-86.016-8.384-2.016-14.528-3.36-35.936-3.584-27.456-.288-50.72.096-63.872 6.528-8.768 4.288-15.52 13.856-11.392 14.4 5.088.672 16.608 3.104 22.72 11.424 7.904 10.72 7.616 34.848 7.616 34.848s4.544 66.4-10.592 74.656c-10.4 5.664-24.64-5.888-55.2-58.72-15.648-27.04-27.488-56.96-27.488-56.96s-2.272-5.568-6.336-8.544c-4.928-3.616-11.84-4.768-11.84-4.768l-73.152.448s-10.976.32-15.008 5.088c-3.584 4.256-.288 13.024-.288 13.024s57.28 133.984 122.112 201.536c59.488 61.92 127.008 57.856 127.008 57.856h30.592s9.248-1.024 13.952-6.112c4.352-4.672 4.192-13.44 4.192-13.44s-.608-41.056 18.464-47.104c18.784-5.952 42.912 39.68 68.48 57.248 19.328 13.28 34.016 10.368 34.016 10.368l68.384-.96s35.776-2.208 18.816-30.336z"/></symbol></svg>